<svg width="8724" height="1350" viewBox="0 0 8724 1350" fill="none"
	xmlns="http://www.w3.org/2000/svg">
	<path fill-rule="evenodd" clip-rule="evenodd" d="M675 1350C1047.79 1350 1350 1047.79 1350 675C1350 302.208 1047.79 0 675 0C302.208 0 0 302.208 0 675C0 1047.79 302.208 1350 675 1350ZM687.424 156.684H721.691V301.771L1090.71 1009.41H721.691V1113.27H687.424V1009.41H259.742L675.225 212.667L687.424 236.06V156.684ZM687.424 445.983L632.326 340.555L292.754 990.313H687.424V954.496H626.478V662.052H687.424V445.983ZM721.691 990.313H971.899L721.691 511.551V662.052H782.64V954.496H721.691V990.313ZM541.205 631.712H506.938V759.883H445.992V903.489H506.938V965.223H541.205V903.489H602.154V759.883H541.205V631.712Z" fill="#2293E4"/>
	<path d="M2164.37 473.086C2164.37 532.188 2153.36 581.323 2131.34 620.492C2109.33 659.661 2078.27 689.096 2038.17 708.797C1998.31 728.266 1951.37 738 1897.37 738H1732.93V229.727H1908.84C1963.54 229.727 2009.9 239.113 2047.91 257.887C2085.92 276.66 2114.77 304.125 2134.47 340.281C2154.4 376.438 2164.37 420.706 2164.37 473.086ZM2021.83 477.953C2021.83 447.128 2017.66 421.633 2009.32 401.469C2001.2 381.073 1988.92 365.892 1972.46 355.926C1956.01 345.728 1935.27 340.629 1910.23 340.629H1870.25V625.359H1900.85C1942.57 625.359 1973.16 613.307 1992.63 589.203C2012.1 564.867 2021.83 527.784 2021.83 477.953ZM2856 483.168C2856 522.337 2851.25 558.03 2841.74 590.246C2832.47 622.23 2817.87 649.811 2797.94 672.988C2778.01 696.165 2752.4 714.012 2721.11 726.527C2689.82 738.811 2652.39 744.953 2608.81 744.953C2566.17 744.953 2529.2 738.811 2497.91 726.527C2466.86 714.012 2441.24 696.281 2421.08 673.336C2400.92 650.159 2385.97 622.462 2376.23 590.246C2366.5 558.03 2361.63 522.105 2361.63 482.473C2361.63 429.629 2370.32 383.738 2387.71 344.801C2405.32 305.632 2432.44 275.385 2469.06 254.062C2505.68 232.508 2552.49 221.73 2609.51 221.73C2667.45 221.73 2714.5 232.508 2750.66 254.062C2787.05 275.617 2813.7 305.979 2830.62 345.148C2847.54 384.318 2856 430.324 2856 483.168ZM2506.26 483.168C2506.26 513.762 2509.73 540.068 2516.69 562.086C2523.64 584.104 2534.65 601.023 2549.71 612.844C2564.78 624.664 2584.48 630.574 2608.81 630.574C2634.08 630.574 2654.13 624.664 2668.96 612.844C2684.02 601.023 2694.8 584.104 2701.29 562.086C2708.01 540.068 2711.37 513.762 2711.37 483.168C2711.37 437.277 2703.72 401.005 2688.43 374.352C2673.13 347.698 2646.83 334.371 2609.51 334.371C2584.71 334.371 2564.66 340.397 2549.37 352.449C2534.3 364.501 2523.29 381.652 2516.34 403.902C2509.62 426.152 2506.26 452.574 2506.26 483.168ZM3746.49 229.727L3621.33 738H3458.97L3410.3 516.543C3409.37 512.371 3407.87 505.302 3405.78 495.336C3403.93 485.37 3401.73 474.013 3399.18 461.266C3396.86 448.518 3394.66 436.003 3392.57 423.719C3390.72 411.203 3389.33 400.658 3388.4 392.082C3387.47 400.658 3385.97 411.203 3383.88 423.719C3381.79 436.003 3379.48 448.518 3376.93 461.266C3374.61 474.013 3372.29 485.37 3369.97 495.336C3367.89 505.302 3366.38 512.371 3365.45 516.543L3316.43 738H3154.08L3028.23 229.727H3160.68L3215.96 484.559C3217.35 490.816 3219.21 499.74 3221.52 511.328C3224.07 522.685 3226.62 535.201 3229.17 548.875C3231.95 562.318 3234.5 575.297 3236.82 587.812C3239.14 600.328 3240.76 610.758 3241.69 619.102C3243.54 604.732 3245.98 588.392 3248.99 570.082C3252.23 551.772 3255.71 533.23 3259.42 514.457C3263.36 495.452 3267.07 477.837 3270.54 461.613C3274.02 445.389 3277.03 432.178 3279.58 421.98L3324.43 229.727H3451.67L3495.13 421.98C3497.45 431.947 3500.34 445.158 3503.82 461.613C3507.53 477.837 3511.24 495.452 3514.95 514.457C3518.89 533.462 3522.48 552.236 3525.72 570.777C3528.97 589.087 3531.4 605.195 3533.02 619.102C3534.41 607.513 3536.73 592.911 3539.98 575.297C3543.22 557.451 3546.47 540.184 3549.71 523.496C3553.19 506.577 3555.85 493.829 3557.71 485.254L3614.03 229.727H3746.49ZM4420.73 738H4240.64L4055 379.914H4051.87C4053.03 390.807 4054.07 403.902 4055 419.199C4055.92 434.496 4056.73 450.141 4057.43 466.133C4058.12 481.893 4058.47 496.147 4058.47 508.895V738H3936.79V229.727H4116.18L4301.14 582.945H4303.22C4302.53 571.82 4301.83 558.957 4301.14 544.355C4300.44 529.522 4299.75 514.573 4299.05 499.508C4298.59 484.443 4298.35 471.116 4298.35 459.527V229.727H4420.73V738ZM4861 441.797H4626.68V369.832L4701.43 295.781C4714.87 282.57 4725.3 271.561 4732.72 262.754C4740.13 253.715 4745.35 246.066 4748.36 239.809C4751.61 233.551 4753.23 227.988 4753.23 223.121C4753.23 216.632 4751.26 211.764 4747.32 208.52C4743.38 205.043 4737.82 203.305 4730.63 203.305C4722.75 203.305 4714.06 205.275 4704.56 209.215C4695.29 213.155 4684.04 221.383 4670.83 233.898L4621.47 176.188C4637.23 161.818 4654.96 150.461 4674.66 142.117C4694.36 133.542 4719.62 129.254 4750.45 129.254C4784.75 129.254 4810.48 136.902 4827.63 152.199C4845.01 167.264 4853.7 187.197 4853.7 211.996C4853.7 230.306 4849.41 246.993 4840.84 262.059C4832.26 277.124 4821.14 291.262 4807.46 304.473C4793.79 317.684 4779.07 330.895 4763.31 344.105L4740.36 363.574H4861V441.797Z" fill="#4A4A4A"/>
	<path d="M5275.63 738H5216.18V281.875H5056.26V229.727H5434.86V281.875H5275.63V738ZM5905.33 229.727C5947.05 229.727 5981.47 234.941 6008.59 245.371C6035.93 255.569 6056.33 271.214 6069.77 292.305C6083.22 313.396 6089.94 340.281 6089.94 372.961C6089.94 399.846 6085.07 422.328 6075.34 440.406C6065.6 458.253 6052.85 472.738 6037.09 483.863C6021.33 494.988 6004.53 503.564 5986.68 509.59L6126.09 738H6057.26L5932.8 525.93H5827.11V738H5768.01V229.727H5905.33ZM5901.86 280.832H5827.11V475.867H5907.77C5949.25 475.867 5979.73 467.408 5999.2 450.488C6018.9 433.569 6028.75 408.654 6028.75 375.742C6028.75 341.208 6018.32 316.757 5997.46 302.387C5976.83 288.017 5944.96 280.832 5901.86 280.832ZM6782.57 738L6719.99 576.688H6516.26L6454.03 738H6394.23L6593.09 227.641H6646.28L6843.75 738H6782.57ZM6702.26 524.191L6642.81 363.922C6641.42 359.75 6639.1 352.913 6635.85 343.41C6632.84 333.908 6629.71 324.057 6626.47 313.859C6623.22 303.661 6620.56 295.434 6618.47 289.176C6616.15 298.678 6613.6 308.181 6610.82 317.684C6608.27 326.954 6605.72 335.646 6603.18 343.758C6600.63 351.638 6598.42 358.359 6596.57 363.922L6536.08 524.191H6702.26ZM7574.28 478.996C7574.28 536.243 7563.85 584.104 7542.99 622.578C7522.13 660.82 7491.88 689.676 7452.25 709.145C7412.85 728.382 7364.99 738 7308.67 738H7170.65V229.727H7323.96C7375.65 229.727 7420.15 239.229 7457.46 258.234C7494.78 277.008 7523.52 304.936 7543.68 342.02C7564.08 378.871 7574.28 424.53 7574.28 478.996ZM7512.05 481.082C7512.05 435.423 7504.4 397.76 7489.1 368.094C7474.04 338.427 7451.79 316.409 7422.35 302.039C7393.15 287.438 7357.34 280.137 7314.92 280.137H7229.75V687.242H7301.71C7371.71 687.242 7424.2 669.975 7459.2 635.441C7494.43 600.908 7512.05 549.454 7512.05 481.082ZM8226.58 738H7943.58V229.727H8226.58V281.875H8002.69V446.316H8213.71V497.77H8002.69V685.852H8226.58V738Z" fill="#1D82CA"/>
	<path d="M1708.47 1155V932.273H1734.37V1131.84H1833.24V1155H1708.47ZM2107.8 1155H1983.8V932.273H2107.8V955.125H2009.7V1027.18H2102.17V1049.73H2009.7V1132.15H2107.8V1155ZM2337.89 1155H2311.84V955.125H2241.76V932.273H2407.66V955.125H2337.89V1155ZM2569.8 932.273L2572.08 935.625C2570.25 943.039 2567.92 951.012 2565.07 959.543C2562.23 967.973 2559.13 976.402 2555.78 984.832C2552.43 993.262 2549.08 1001.18 2545.73 1008.6H2527.14C2528.66 1002.81 2530.19 996.613 2531.71 990.012C2533.34 983.41 2534.86 976.707 2536.28 969.902C2537.7 963.098 2538.97 956.496 2540.09 950.098C2541.31 943.699 2542.32 937.758 2543.14 932.273H2569.8ZM2844.67 1095.74C2844.67 1108.94 2841.37 1120.21 2834.76 1129.56C2828.26 1138.8 2819.12 1145.86 2807.34 1150.73C2795.56 1155.61 2781.7 1158.05 2765.75 1158.05C2757.32 1158.05 2749.35 1157.64 2741.83 1156.83C2734.32 1156.02 2727.41 1154.85 2721.12 1153.32C2714.82 1151.8 2709.28 1149.92 2704.51 1147.69V1122.86C2712.13 1126 2721.42 1128.95 2732.39 1131.69C2743.36 1134.33 2754.83 1135.65 2766.82 1135.65C2777.99 1135.65 2787.44 1134.18 2795.16 1131.23C2802.87 1128.19 2808.71 1123.87 2812.67 1118.29C2816.74 1112.6 2818.77 1105.79 2818.77 1097.87C2818.77 1090.25 2817.09 1083.91 2813.74 1078.83C2810.39 1073.65 2804.8 1068.98 2796.98 1064.81C2789.26 1060.55 2778.7 1056.03 2765.3 1051.25C2755.85 1047.9 2747.52 1044.25 2740.31 1040.29C2733.1 1036.22 2727.06 1031.65 2722.18 1026.57C2717.31 1021.5 2713.6 1015.61 2711.06 1008.9C2708.62 1002.2 2707.41 994.531 2707.41 985.898C2707.41 974.016 2710.4 963.859 2716.39 955.43C2722.49 946.898 2730.87 940.398 2741.53 935.93C2752.3 931.359 2764.64 929.074 2778.55 929.074C2790.43 929.074 2801.4 930.191 2811.46 932.426C2821.61 934.66 2830.91 937.656 2839.33 941.414L2831.26 963.656C2823.24 960.305 2814.71 957.512 2805.67 955.277C2796.73 953.043 2787.49 951.926 2777.94 951.926C2768.39 951.926 2760.32 953.348 2753.72 956.191C2747.22 958.934 2742.24 962.844 2738.79 967.922C2735.33 973 2733.61 979.043 2733.61 986.051C2733.61 993.871 2735.23 1000.37 2738.48 1005.55C2741.83 1010.73 2747.12 1015.35 2754.33 1019.41C2761.64 1023.38 2771.29 1027.54 2783.27 1031.91C2796.37 1036.68 2807.49 1041.76 2816.64 1047.14C2825.78 1052.42 2832.73 1058.92 2837.51 1066.64C2842.28 1074.26 2844.67 1083.96 2844.67 1095.74ZM3291.12 1038.3H3368.97V1146.32C3357.29 1150.28 3345.25 1153.22 3332.86 1155.15C3320.57 1157.08 3306.81 1158.05 3291.58 1158.05C3268.42 1158.05 3248.87 1153.43 3232.92 1144.18C3217.08 1134.94 3205.05 1121.79 3196.82 1104.73C3188.59 1087.56 3184.48 1067.2 3184.48 1043.64C3184.48 1020.58 3189 1000.47 3198.04 983.309C3207.18 966.145 3220.33 952.84 3237.49 943.395C3254.76 933.848 3275.48 929.074 3299.65 929.074C3312.04 929.074 3323.77 930.242 3334.84 932.578C3346.01 934.812 3356.37 938.012 3365.92 942.176L3356.02 964.723C3347.79 961.168 3338.7 958.121 3328.75 955.582C3318.9 953.043 3308.69 951.773 3298.13 951.773C3279.95 951.773 3264.36 955.531 3251.36 963.047C3238.46 970.562 3228.56 981.176 3221.65 994.887C3214.85 1008.6 3211.44 1024.85 3211.44 1043.64C3211.44 1062.22 3214.44 1078.42 3220.43 1092.23C3226.42 1105.95 3235.77 1116.61 3248.46 1124.23C3261.16 1131.84 3277.51 1135.65 3297.52 1135.65C3307.57 1135.65 3316.21 1135.09 3323.42 1133.98C3330.63 1132.76 3337.18 1131.34 3343.07 1129.71V1061.46H3291.12V1038.3ZM3659.22 1155H3535.22V932.273H3659.22V955.125H3561.11V1027.18H3653.59V1049.73H3561.11V1132.15H3659.22V1155ZM3889.31 1155H3863.26V955.125H3793.18V932.273H3959.08V955.125H3889.31V1155ZM4475.31 1041.5C4475.31 1066.59 4470.74 1087.56 4461.59 1104.42C4452.45 1121.18 4439.2 1133.82 4421.83 1142.36C4404.57 1150.79 4383.59 1155 4358.91 1155H4298.43V932.273H4365.62C4388.27 932.273 4407.77 936.438 4424.12 944.766C4440.47 952.992 4453.06 965.23 4461.9 981.48C4470.84 997.629 4475.31 1017.64 4475.31 1041.5ZM4448.04 1042.42C4448.04 1022.41 4444.68 1005.91 4437.98 992.906C4431.38 979.906 4421.63 970.258 4408.73 963.961C4395.93 957.562 4380.24 954.363 4361.66 954.363H4324.33V1132.76H4355.87C4386.54 1132.76 4409.54 1125.19 4424.88 1110.06C4440.32 1094.93 4448.04 1072.38 4448.04 1042.42ZM4830.31 1043.33C4830.31 1060.5 4828.13 1076.14 4823.76 1090.25C4819.39 1104.27 4812.89 1116.36 4804.26 1126.51C4795.73 1136.57 4785.11 1144.34 4772.42 1149.82C4759.72 1155.3 4745 1158.05 4728.24 1158.05C4710.97 1158.05 4695.89 1155.3 4682.99 1149.82C4670.2 1144.34 4659.53 1136.52 4651 1126.36C4642.57 1116.2 4636.22 1104.07 4631.96 1089.95C4627.79 1075.83 4625.71 1060.19 4625.71 1043.03C4625.71 1020.28 4629.47 1000.32 4636.98 983.156C4644.5 965.992 4655.88 952.637 4671.11 943.09C4686.45 933.543 4705.64 928.77 4728.7 928.77C4750.73 928.77 4769.27 933.492 4784.3 942.938C4799.43 952.383 4810.86 965.688 4818.58 982.852C4826.4 999.914 4830.31 1020.07 4830.31 1043.33ZM4652.98 1043.33C4652.98 1062.22 4655.67 1078.57 4661.06 1092.39C4666.44 1106.2 4674.66 1116.86 4685.73 1124.38C4696.91 1131.89 4711.07 1135.65 4728.24 1135.65C4745.5 1135.65 4759.62 1131.89 4770.59 1124.38C4781.66 1116.86 4789.84 1106.2 4795.12 1092.39C4800.4 1078.57 4803.04 1062.22 4803.04 1043.33C4803.04 1014.59 4797 992.145 4784.91 975.996C4772.93 959.746 4754.19 951.621 4728.7 951.621C4711.43 951.621 4697.21 955.328 4686.04 962.742C4674.87 970.156 4666.54 980.719 4661.06 994.43C4655.67 1008.04 4652.98 1024.34 4652.98 1043.33ZM5245.34 932.273L5185.77 1155H5159.72L5115.54 1005.09C5114.22 1000.83 5112.95 996.562 5111.73 992.297C5110.61 987.93 5109.55 983.816 5108.53 979.957C5107.52 975.996 5106.65 972.543 5105.94 969.598C5105.33 966.551 5104.88 964.266 5104.57 962.742C5104.37 964.266 5103.96 966.5 5103.35 969.445C5102.84 972.391 5102.13 975.793 5101.22 979.652C5100.41 983.512 5099.39 987.625 5098.17 991.992C5097.05 996.359 5095.84 1000.78 5094.52 1005.25L5051.55 1155H5025.5L4966.39 932.273H4993.36L5029.16 1071.97C5030.38 1076.64 5031.5 1081.27 5032.51 1085.84C5033.63 1090.3 5034.59 1094.67 5035.41 1098.94C5036.32 1103.2 5037.13 1107.37 5037.84 1111.43C5038.55 1115.49 5039.22 1119.45 5039.82 1123.31C5040.33 1119.35 5040.99 1115.24 5041.8 1110.97C5042.62 1106.61 5043.48 1102.19 5044.39 1097.72C5045.41 1093.25 5046.48 1088.73 5047.59 1084.16C5048.81 1079.59 5050.08 1075.02 5051.4 1070.45L5091.47 932.273H5118.13L5159.87 1071.52C5161.29 1076.29 5162.61 1081.01 5163.83 1085.68C5165.05 1090.36 5166.12 1094.93 5167.03 1099.39C5168.05 1103.76 5168.91 1107.98 5169.62 1112.04C5170.43 1116 5171.14 1119.76 5171.75 1123.31C5172.47 1118.34 5173.33 1113.11 5174.34 1107.62C5175.36 1102.14 5176.53 1096.4 5177.85 1090.41C5179.27 1084.41 5180.79 1078.22 5182.42 1071.82L5218.22 932.273H5245.34ZM5566.98 1155H5537.12L5415.7 967.922H5414.48C5414.78 972.898 5415.14 978.586 5415.55 984.984C5415.95 991.281 5416.26 998.035 5416.46 1005.25C5416.77 1012.36 5416.92 1019.62 5416.92 1027.03V1155H5392.85V932.273H5422.55L5543.52 1118.74H5544.58C5544.38 1115.19 5544.12 1110.16 5543.82 1103.66C5543.52 1097.06 5543.21 1090 5542.91 1082.48C5542.7 1074.87 5542.6 1067.81 5542.6 1061.31V932.273H5566.98V1155ZM6001.85 1155H5975.8V955.125H5905.72V932.273H6071.62V955.125H6001.85V1155ZM6410.78 1043.33C6410.78 1060.5 6408.6 1076.14 6404.23 1090.25C6399.87 1104.27 6393.37 1116.36 6384.73 1126.51C6376.2 1136.57 6365.59 1144.34 6352.89 1149.82C6340.2 1155.3 6325.47 1158.05 6308.71 1158.05C6291.45 1158.05 6276.37 1155.3 6263.47 1149.82C6250.67 1144.34 6240.01 1136.52 6231.48 1126.36C6223.05 1116.2 6216.7 1104.07 6212.43 1089.95C6208.27 1075.83 6206.19 1060.19 6206.19 1043.03C6206.19 1020.28 6209.94 1000.32 6217.46 983.156C6224.98 965.992 6236.35 952.637 6251.58 943.09C6266.92 933.543 6286.12 928.77 6309.17 928.77C6331.21 928.77 6349.75 933.492 6364.78 942.938C6379.91 952.383 6391.33 965.688 6399.05 982.852C6406.87 999.914 6410.78 1020.07 6410.78 1043.33ZM6233.46 1043.33C6233.46 1062.22 6236.15 1078.57 6241.53 1092.39C6246.91 1106.2 6255.14 1116.86 6266.21 1124.38C6277.38 1131.89 6291.55 1135.65 6308.71 1135.65C6325.98 1135.65 6340.1 1131.89 6351.07 1124.38C6362.14 1116.86 6370.31 1106.2 6375.59 1092.39C6380.87 1078.57 6383.51 1062.22 6383.51 1043.33C6383.51 1014.59 6377.47 992.145 6365.39 975.996C6353.4 959.746 6334.66 951.621 6309.17 951.621C6291.91 951.621 6277.69 955.328 6266.51 962.742C6255.34 970.156 6247.01 980.719 6241.53 994.43C6236.15 1008.04 6233.46 1024.34 6233.46 1043.33ZM6834.54 1155H6808.49V955.125H6738.41V932.273H6904.31V955.125H6834.54V1155ZM7110.47 932.273C7128.76 932.273 7143.84 934.559 7155.72 939.129C7167.71 943.598 7176.64 950.453 7182.53 959.695C7188.42 968.938 7191.37 980.719 7191.37 995.039C7191.37 1006.82 7189.24 1016.67 7184.97 1024.59C7180.71 1032.41 7175.12 1038.76 7168.21 1043.64C7161.31 1048.51 7153.94 1052.27 7146.12 1054.91L7207.21 1155H7177.05L7122.51 1062.07H7076.2V1155H7050.3V932.273H7110.47ZM7108.95 954.668H7076.2V1040.13H7111.54C7129.72 1040.13 7143.08 1036.43 7151.61 1029.01C7160.24 1021.6 7164.56 1010.68 7164.56 996.258C7164.56 981.125 7159.99 970.41 7150.85 964.113C7141.81 957.816 7127.84 954.668 7108.95 954.668ZM7494.88 1155L7467.46 1084.31H7378.19L7350.92 1155H7324.71L7411.85 931.359H7435.16L7521.69 1155H7494.88ZM7459.69 1061.31L7433.64 991.078C7433.03 989.25 7432.01 986.254 7430.59 982.09C7429.27 977.926 7427.9 973.609 7426.48 969.141C7425.06 964.672 7423.89 961.066 7422.97 958.324C7421.96 962.488 7420.84 966.652 7419.62 970.816C7418.51 974.879 7417.39 978.688 7416.27 982.242C7415.15 985.695 7414.19 988.641 7413.38 991.078L7386.87 1061.31H7459.69ZM7841.81 1041.5C7841.81 1066.59 7837.24 1087.56 7828.1 1104.42C7818.96 1121.18 7805.7 1133.82 7788.34 1142.36C7771.07 1150.79 7750.1 1155 7725.42 1155H7664.94V932.273H7732.12C7754.77 932.273 7774.27 936.438 7790.62 944.766C7806.97 952.992 7819.57 965.23 7828.4 981.48C7837.34 997.629 7841.81 1017.64 7841.81 1041.5ZM7814.54 1042.42C7814.54 1022.41 7811.19 1005.91 7804.49 992.906C7797.88 979.906 7788.13 970.258 7775.24 963.961C7762.44 957.562 7746.75 954.363 7728.16 954.363H7690.84V1132.76H7722.37C7753.04 1132.76 7776.05 1125.19 7791.38 1110.06C7806.82 1094.93 7814.54 1072.38 7814.54 1042.42ZM8003.64 1155V932.273H8029.54V1155H8003.64ZM8377.23 1155H8347.37L8225.95 967.922H8224.73C8225.04 972.898 8225.4 978.586 8225.8 984.984C8226.21 991.281 8226.51 998.035 8226.72 1005.25C8227.02 1012.36 8227.17 1019.62 8227.17 1027.03V1155H8203.1V932.273H8232.81L8353.77 1118.74H8354.84C8354.63 1115.19 8354.38 1110.16 8354.07 1103.66C8353.77 1097.06 8353.47 1090 8353.16 1082.48C8352.96 1074.87 8352.86 1067.81 8352.86 1061.31V932.273H8377.23V1155ZM8645.55 1038.3H8723.4V1146.32C8711.72 1150.28 8699.68 1153.22 8687.29 1155.15C8675 1157.08 8661.24 1158.05 8646.01 1158.05C8622.85 1158.05 8603.3 1153.43 8587.36 1144.18C8571.51 1134.94 8559.48 1121.79 8551.25 1104.73C8543.02 1087.56 8538.91 1067.2 8538.91 1043.64C8538.91 1020.58 8543.43 1000.47 8552.47 983.309C8561.61 966.145 8574.76 952.84 8591.93 943.395C8609.19 933.848 8629.91 929.074 8654.08 929.074C8666.47 929.074 8678.2 930.242 8689.27 932.578C8700.45 934.812 8710.81 938.012 8720.35 942.176L8710.45 964.723C8702.22 961.168 8693.13 958.121 8683.18 955.582C8673.33 953.043 8663.12 951.773 8652.56 951.773C8634.38 951.773 8618.79 955.531 8605.79 963.047C8592.89 970.562 8582.99 981.176 8576.08 994.887C8569.28 1008.6 8565.88 1024.85 8565.88 1043.64C8565.88 1062.22 8568.87 1078.42 8574.86 1092.23C8580.86 1105.95 8590.2 1116.61 8602.9 1124.23C8615.59 1131.84 8631.94 1135.65 8651.95 1135.65C8662 1135.65 8670.64 1135.09 8677.85 1133.98C8685.06 1132.76 8691.61 1131.34 8697.5 1129.71V1061.46H8645.55V1038.3Z" fill="#1D82CA"/>
</svg>
