<svg width="8270" height="1350" viewBox="0 0 8270 1350" fill="none"
	xmlns="http://www.w3.org/2000/svg">
	<path fill-rule="evenodd" clip-rule="evenodd" d="M675 1350C1047.79 1350 1350 1047.79 1350 675C1350 302.208 1047.79 0 675 0C302.208 0 0 302.208 0 675C0 1047.79 302.208 1350 675 1350ZM687.424 156.684H721.691V301.771L1090.71 1009.41H721.691V1113.27H687.424V1009.41H259.742L675.225 212.667L687.424 236.06V156.684ZM687.424 445.983L632.326 340.555L292.754 990.313H687.424V954.496H626.478V662.052H687.424V445.983ZM721.691 990.313H971.899L721.691 511.551V662.052H782.64V954.496H721.691V990.313ZM541.205 631.712H506.938V759.883H445.992V903.489H506.938V965.223H541.205V903.489H602.154V759.883H541.205V631.712Z" fill="white"/>
	<path d="M2164.37 686.086C2164.37 745.188 2153.36 794.323 2131.34 833.492C2109.33 872.661 2078.27 902.096 2038.17 921.797C1998.31 941.266 1951.37 951 1897.37 951H1732.93V442.727H1908.84C1963.54 442.727 2009.9 452.113 2047.91 470.887C2085.92 489.66 2114.77 517.125 2134.47 553.281C2154.4 589.438 2164.37 633.706 2164.37 686.086ZM2021.83 690.953C2021.83 660.128 2017.66 634.633 2009.32 614.469C2001.2 594.073 1988.92 578.892 1972.46 568.926C1956.01 558.728 1935.27 553.629 1910.23 553.629H1870.25V838.359H1900.85C1942.57 838.359 1973.16 826.307 1992.63 802.203C2012.1 777.867 2021.83 740.784 2021.83 690.953ZM2856 696.168C2856 735.337 2851.25 771.03 2841.74 803.246C2832.47 835.23 2817.87 862.811 2797.94 885.988C2778.01 909.165 2752.4 927.012 2721.11 939.527C2689.82 951.811 2652.39 957.953 2608.81 957.953C2566.17 957.953 2529.2 951.811 2497.91 939.527C2466.86 927.012 2441.24 909.281 2421.08 886.336C2400.92 863.159 2385.97 835.462 2376.23 803.246C2366.5 771.03 2361.63 735.105 2361.63 695.473C2361.63 642.629 2370.32 596.738 2387.71 557.801C2405.32 518.632 2432.44 488.385 2469.06 467.062C2505.68 445.508 2552.49 434.73 2609.51 434.73C2667.45 434.73 2714.5 445.508 2750.66 467.062C2787.05 488.617 2813.7 518.979 2830.62 558.148C2847.54 597.318 2856 643.324 2856 696.168ZM2506.26 696.168C2506.26 726.762 2509.73 753.068 2516.69 775.086C2523.64 797.104 2534.65 814.023 2549.71 825.844C2564.78 837.664 2584.48 843.574 2608.81 843.574C2634.08 843.574 2654.13 837.664 2668.96 825.844C2684.02 814.023 2694.8 797.104 2701.29 775.086C2708.01 753.068 2711.37 726.762 2711.37 696.168C2711.37 650.277 2703.72 614.005 2688.43 587.352C2673.13 560.698 2646.83 547.371 2609.51 547.371C2584.71 547.371 2564.66 553.397 2549.37 565.449C2534.3 577.501 2523.29 594.652 2516.34 616.902C2509.62 639.152 2506.26 665.574 2506.26 696.168ZM3746.49 442.727L3621.33 951H3458.97L3410.3 729.543C3409.37 725.371 3407.87 718.302 3405.78 708.336C3403.93 698.37 3401.73 687.013 3399.18 674.266C3396.86 661.518 3394.66 649.003 3392.57 636.719C3390.72 624.203 3389.33 613.658 3388.4 605.082C3387.47 613.658 3385.97 624.203 3383.88 636.719C3381.79 649.003 3379.48 661.518 3376.93 674.266C3374.61 687.013 3372.29 698.37 3369.97 708.336C3367.89 718.302 3366.38 725.371 3365.45 729.543L3316.43 951H3154.08L3028.23 442.727H3160.68L3215.96 697.559C3217.35 703.816 3219.21 712.74 3221.52 724.328C3224.07 735.685 3226.62 748.201 3229.17 761.875C3231.95 775.318 3234.5 788.297 3236.82 800.812C3239.14 813.328 3240.76 823.758 3241.69 832.102C3243.54 817.732 3245.98 801.392 3248.99 783.082C3252.23 764.772 3255.71 746.23 3259.42 727.457C3263.36 708.452 3267.07 690.837 3270.54 674.613C3274.02 658.389 3277.03 645.178 3279.58 634.98L3324.43 442.727H3451.67L3495.13 634.98C3497.45 644.947 3500.34 658.158 3503.82 674.613C3507.53 690.837 3511.24 708.452 3514.95 727.457C3518.89 746.462 3522.48 765.236 3525.72 783.777C3528.97 802.087 3531.4 818.195 3533.02 832.102C3534.41 820.513 3536.73 805.911 3539.98 788.297C3543.22 770.451 3546.47 753.184 3549.71 736.496C3553.19 719.577 3555.85 706.829 3557.71 698.254L3614.03 442.727H3746.49ZM4420.73 951H4240.64L4055 592.914H4051.87C4053.03 603.807 4054.07 616.902 4055 632.199C4055.92 647.496 4056.73 663.141 4057.43 679.133C4058.12 694.893 4058.47 709.147 4058.47 721.895V951H3936.79V442.727H4116.18L4301.14 795.945H4303.22C4302.53 784.82 4301.83 771.957 4301.14 757.355C4300.44 742.522 4299.75 727.573 4299.05 712.508C4298.59 697.443 4298.35 684.116 4298.35 672.527V442.727H4420.73V951ZM4861 654.797H4626.68V582.832L4701.43 508.781C4714.87 495.57 4725.3 484.561 4732.72 475.754C4740.13 466.715 4745.35 459.066 4748.36 452.809C4751.61 446.551 4753.23 440.988 4753.23 436.121C4753.23 429.632 4751.26 424.764 4747.32 421.52C4743.38 418.043 4737.82 416.305 4730.63 416.305C4722.75 416.305 4714.06 418.275 4704.56 422.215C4695.29 426.155 4684.04 434.383 4670.83 446.898L4621.47 389.188C4637.23 374.818 4654.96 363.461 4674.66 355.117C4694.36 346.542 4719.62 342.254 4750.45 342.254C4784.75 342.254 4810.48 349.902 4827.63 365.199C4845.01 380.264 4853.7 400.197 4853.7 424.996C4853.7 443.306 4849.41 459.993 4840.84 475.059C4832.26 490.124 4821.14 504.262 4807.46 517.473C4793.79 530.684 4779.07 543.895 4763.31 557.105L4740.36 576.574H4861V654.797Z" fill="white"/>
	<path d="M5275.63 951H5216.18V494.875H5056.26V442.727H5434.86V494.875H5275.63V951ZM5905.33 442.727C5947.05 442.727 5981.47 447.941 6008.59 458.371C6035.93 468.569 6056.33 484.214 6069.77 505.305C6083.22 526.396 6089.94 553.281 6089.94 585.961C6089.94 612.846 6085.07 635.328 6075.34 653.406C6065.6 671.253 6052.85 685.738 6037.09 696.863C6021.33 707.988 6004.53 716.564 5986.68 722.59L6126.09 951H6057.26L5932.8 738.93H5827.11V951H5768.01V442.727H5905.33ZM5901.86 493.832H5827.11V688.867H5907.77C5949.25 688.867 5979.73 680.408 5999.2 663.488C6018.9 646.569 6028.75 621.654 6028.75 588.742C6028.75 554.208 6018.32 529.757 5997.46 515.387C5976.83 501.017 5944.96 493.832 5901.86 493.832ZM6782.57 951L6719.99 789.688H6516.26L6454.03 951H6394.23L6593.09 440.641H6646.28L6843.75 951H6782.57ZM6702.26 737.191L6642.81 576.922C6641.42 572.75 6639.1 565.913 6635.85 556.41C6632.84 546.908 6629.71 537.057 6626.47 526.859C6623.22 516.661 6620.56 508.434 6618.47 502.176C6616.15 511.678 6613.6 521.181 6610.82 530.684C6608.27 539.954 6605.72 548.646 6603.18 556.758C6600.63 564.638 6598.42 571.359 6596.57 576.922L6536.08 737.191H6702.26ZM7574.28 691.996C7574.28 749.243 7563.85 797.104 7542.99 835.578C7522.13 873.82 7491.88 902.676 7452.25 922.145C7412.85 941.382 7364.99 951 7308.67 951H7170.65V442.727H7323.96C7375.65 442.727 7420.15 452.229 7457.46 471.234C7494.78 490.008 7523.52 517.936 7543.68 555.02C7564.08 591.871 7574.28 637.53 7574.28 691.996ZM7512.05 694.082C7512.05 648.423 7504.4 610.76 7489.1 581.094C7474.04 551.427 7451.79 529.409 7422.35 515.039C7393.15 500.438 7357.34 493.137 7314.92 493.137H7229.75V900.242H7301.71C7371.71 900.242 7424.2 882.975 7459.2 848.441C7494.43 813.908 7512.05 762.454 7512.05 694.082ZM8226.58 951H7943.58V442.727H8226.58V494.875H8002.69V659.316H8213.71V710.77H8002.69V898.852H8226.58V951Z" fill="white"/>
</svg>
