<svg width="2170" height="812" viewBox="0 0 2170 812" fill="none"
	xmlns="http://www.w3.org/2000/svg">
	<path d="M784.001 611C779.001 610.3 774.101 609.8 769.101 609C757.201 607.1 745.301 605.1 732.901 603C738.101 584 743.001 566.3 747.501 549.8C763.001 551.3 777.801 553.1 792.601 554.1C806.101 555 815.401 548.4 820.501 535.8C822.101 531.8 823.601 527.8 825.301 523.3C799.201 454.6 772.901 385.7 746.701 316.7C746.401 316.8 746.101 316.8 745.801 316.9C745.801 325.1 745.801 333.3 745.801 342C725.801 342 706.201 342 686.401 342C686.401 374.3 686.401 406.1 686.401 437.9C686.401 442.2 686.501 446.6 686.801 450.9C688.001 465.9 695.201 473.3 710.401 473.8C720.501 474.2 730.601 473.3 741.001 473C741.001 488.5 741.001 504.9 741.001 522.2C729.601 523.1 718.101 524.3 706.601 524.9C689.401 525.7 672.301 525.4 655.501 521C632.001 514.9 620.001 500.7 617.901 476.6C617.301 470 617.001 463.3 617.001 456.7C616.901 418.7 617.001 380.7 617.001 342.3C604.301 342.3 591.801 342.3 578.601 342.3C578.601 335.7 578.601 329.5 578.601 323.3C578.201 323.2 577.901 323.1 577.501 323C569.301 334.8 561.101 346.5 553.301 357.8C541.701 351.9 530.801 345.6 519.201 340.7C503.601 334.1 487.301 331.3 470.401 335.2C460.701 337.4 454.501 343.8 453.801 351.6C453.001 359.5 456.001 366 463.101 368.7C473.101 372.6 483.501 375.7 494.001 377.9C512.201 381.7 530.401 385 548.001 391.5C603.901 412.3 594.501 480.4 564.001 504C547.301 517 528.101 523.4 507.501 525.6C474.001 529.2 441.401 525.7 410.401 511.8C398.801 506.6 388.201 499.8 378.301 491.3C387.601 478.3 396.701 465.4 406.101 452.2C417.201 461.4 429.201 468.6 442.501 473.5C460.701 480.3 479.301 484.1 498.701 481C503.701 480.2 508.801 478.6 513.201 476.1C526.601 468.4 526.901 449.8 513.301 442.7C504.301 438 494.001 435.8 484.101 433.2C467.401 428.9 450.101 426.4 433.901 420.8C404.201 410.7 389.801 391.2 388.901 363.9C387.901 332.5 402.501 308.8 430.401 296.1C447.301 288.4 465.101 286.3 483.501 286.6C507.401 287 530.601 290.5 552.201 301.3C561.101 305.7 569.301 311.3 578.301 316.6C578.301 308.5 578.301 300.2 578.301 291.4C591.501 291.4 604.001 291.4 616.901 291.4C616.901 264.8 616.901 238.7 616.901 212.4C640.201 212.4 663.101 212.4 686.401 212.4C686.401 238.5 686.401 264.6 686.401 291.1C727.401 291.1 768.001 291.1 809.101 291.1C826.001 341.1 842.901 391 860.201 441.9C877.601 391 894.501 341.4 911.501 291.5C934.001 291.5 956.401 291.5 979.301 291.5C974.501 304.2 969.801 316.6 965.001 329C937.601 401 910.301 473 882.901 545C876.601 561.6 868.901 577.4 856.001 590.1C843.101 602.8 827.201 608.7 809.401 610.2C808.201 610.3 807.101 610.8 806.001 611.2C798.701 611 791.301 611 784.001 611Z" fill="#AEAEAE"/>
	<path d="M2170 495C2169.4 496.5 2168.7 497.9 2168.2 499.4C2162.9 517.7 2145.2 529.5 2127.1 526.6C2106.8 523.3 2094 507.3 2095 486.3C2095.8 468.7 2111.1 453.6 2129.5 452.2C2148.2 450.7 2165.1 463.7 2169 482.5C2169.2 483.4 2169.7 484.2 2170 485C2170 488.3 2170 491.7 2170 495Z" fill="#AEAEAE"/>
	<path d="M1669.9 201.9C1669.9 201.6 1669.9 201.3 1670 201C1693 201 1716 201 1739 201C1739.1 201.3 1739.1 201.6 1739.1 201.9C1716 201.9 1693 201.9 1669.9 201.9Z" fill="#CCCCCC"/>
	<path d="M0 291C0.4 291.1 0.8 291.2 1.2 291.3C1.2 308.2 1.1 325 1.1 341.9C0.7 341.9 0.4 342 0 342C0 325 0 308 0 291Z" fill="#CCCCCC"/>
	<path d="M1669.9 201.9C1692.9 201.9 1716 201.9 1739 201.9C1739.2 203.9 1739.6 205.8 1739.6 207.8C1739.6 261.5 1739.6 315.1 1739.6 368.8C1739.6 370.7 1739.6 372.7 1739.6 374.6C1740 374.8 1740.4 375 1740.8 375.2C1764.2 347.2 1787.5 319.2 1810.9 291.3C1835.8 291.3 1860.4 291.3 1886.2 291.3C1860.8 320.4 1836 348.7 1810.9 377.5C1831.7 415.2 1852.3 452.7 1873.4 490.9C1882.8 477.7 1891.8 465.2 1901 452.3C1904.1 454.6 1906.8 456.8 1909.6 458.8C1932.1 474.1 1956.8 482.6 1984.1 481.9C1990.8 481.7 1997.6 480.1 2004 478.1C2012.2 475.4 2017.4 469.5 2017.8 460.4C2018.2 451.2 2013.9 444.1 2005.5 441.2C1993.3 437.1 1980.7 433.9 1968 431.2C1948.8 427.1 1929.5 423.5 1912.3 413.3C1894.5 402.7 1885.3 386.8 1883.9 366.2C1881 325.2 1905.7 298.3 1941.9 290.5C1987.7 280.7 2031.3 287.1 2070.1 315.4C2071 316.1 2071.9 316.8 2072.8 317.6C2073.3 318 2073.7 318.6 2074.5 319.5C2065.6 332.4 2056.6 345.4 2047.4 358.6C2043.1 356 2039.2 353.5 2035.3 351.2C2015.7 339.8 1995 331.7 1971.8 334.3C1966.2 334.9 1960.3 336.9 1955.6 340C1945.4 346.7 1945.3 361.7 1956 367.6C1964.4 372.2 1974.2 374.8 1983.6 377.2C2001 381.6 2018.7 384.7 2036 389.5C2048.9 393.1 2060.6 399.7 2069.6 410.1C2082.2 424.5 2084.5 441.7 2082.3 459.8C2078.7 489.1 2061.7 508.7 2034.7 517.8C1983.7 534.9 1934.4 529.9 1887.8 502.4C1883.8 500.1 1880.2 497.2 1875.6 495C1880.4 503.8 1885.2 512.6 1890.3 521.9C1866 521.9 1842.3 521.9 1818.1 521.9C1801.4 491.3 1784.6 460.3 1767.4 428.7C1757.9 439.3 1748.8 449.5 1739.5 460C1739.5 480.6 1739.5 501.2 1739.5 522.1C1716 522.1 1693 522.1 1669.3 522.1C1669.3 520.1 1669.3 518.3 1669.3 516.5C1669.3 413.5 1669.3 310.5 1669.3 207.6C1669.4 205.5 1669.7 203.7 1669.9 201.9Z" fill="#CCCCCC"/>
	<path d="M1.09961 341.9C1.09961 325 1.19961 308.2 1.19961 291.3C13.6996 291.3 26.0996 291.3 38.8996 291.3C38.8996 264.7 38.8996 238.6 38.8996 212.3C62.1996 212.3 85.0996 212.3 108.4 212.3C108.4 238.4 108.4 264.5 108.4 291C128.2 291 147.7 291 167.5 291C167.5 308.1 167.5 324.8 167.5 342C147.9 342 128.3 342 108.6 342C108.6 371.5 108.6 400.5 108.6 429.4C108.6 437.1 108.6 444.7 109.2 452.4C110.2 464.7 116 471.2 128.2 473.2C139.4 475.1 150.7 474.4 162 472.1C161 460.4 161.6 449.1 165.3 438.3C171.3 420.7 183.5 408.4 199.2 399.2C218.7 387.8 240.1 381.9 262.2 378.1C277.2 375.5 292.4 373.7 307.6 371.6C309.9 351.2 299.7 339.5 278.6 339.1C253.2 338.7 230.7 347.2 209.9 361.3C208.4 362.3 206.9 363.4 205.4 364.5C204.1 365.5 202.7 366.4 200.9 367.8C191 354.5 181.3 341.3 171.4 327.9C185.8 314.6 201.9 304.5 220 297.9C251.8 286.3 284.6 282.9 317.7 290C350.6 297 369.2 318 373.9 351.2C375.2 360.4 375.9 369.8 375.9 379C376.2 413.7 375.7 448.3 376.4 483C376.6 496 379.2 509 380.7 522.1C359 522.1 336.1 522.1 312.1 522.1C310.4 511.6 308.7 500.9 307 490.3C302.2 494.6 297.4 499.7 292 503.9C264.7 524.8 234.4 531.6 201.3 521.2C184.5 515.9 172.5 504.3 165.9 487.7C165.6 486.9 165.2 486.2 164.9 485.4C164.9 485.3 164.7 485.3 163.9 485C163.9 497.4 163.9 509.5 163.9 522.5C151.8 523.5 140.3 524.7 128.7 525.2C111.5 526 94.3996 525.7 77.5996 521.3C54.1996 515.2 42.1996 501 39.9996 476.8C39.3996 470 39.0996 463.2 38.9996 456.4C38.8996 418.6 38.9996 380.8 38.9996 342.2C26.2996 341.9 13.6996 341.9 1.09961 341.9ZM307.6 410.5C287.1 412.8 267 415.2 248.7 424.9C243 427.9 237.5 432.4 233.8 437.6C223.7 451.8 231.1 469.7 248.3 472.1C270.9 475.2 291 468.9 307.6 453.3C307.6 438.9 307.6 424.9 307.6 410.5Z" fill="#AEAEAE"/>
	<path d="M1213.5 521.9C1191.8 521.9 1170.5 521.9 1148.7 521.9C1137.2 475.4 1125.8 428.9 1114.3 382.4C1113.9 382.4 1113.6 382.5 1113.2 382.5C1101.8 428.9 1090.3 475.3 1078.9 521.9C1057.4 521.9 1036.3 521.9 1014.6 521.9C1011.9 512.7 1009 503.4 1006.3 494C994.9 455.1 983.6 416.1 972.1 377.2C970.9 373 970.9 369.3 972.5 365.1C981.7 341.6 990.7 317.9 999.7 294.3C1000.1 293.4 1000.5 292.5 1001 291.3C1006.3 291.3 1011.6 291.3 1017.8 291.3C1029.7 341.7 1041.6 392.3 1052.9 440.5C1064.5 392.4 1076.6 341.8 1088.8 291.2C1107.4 291.2 1125.2 291.2 1143.8 291.2C1156.5 341.8 1169.2 392.3 1181.4 440.7C1193.4 392.4 1206 341.8 1218.6 291.2C1239.7 291.2 1260 291.2 1281.1 291.2C1258.5 368.3 1236.1 444.9 1213.5 521.9Z" fill="#CCCCCC"/>
	<path d="M1379.3 285.9C1445.1 285.7 1501.5 339.9 1499.8 409.7C1498.3 473.4 1447.2 527.6 1378.7 527.5C1308.4 527.3 1256.5 469.9 1258.2 403.6C1259.8 337 1314.6 285.4 1379.3 285.9ZM1379.3 348.7C1346.9 348.6 1321 374.2 1320.9 406.4C1320.8 438.5 1346.8 464.8 1378.7 464.9C1410.8 465 1437 439 1437.1 407C1437.3 374.6 1411.5 348.7 1379.3 348.7Z" fill="#CCCCCC"/>
	<path d="M1508.3 291.3C1531.6 291.3 1554.4 291.3 1577.7 291.3C1577.7 303.7 1577.7 315.9 1577.7 328.2C1597.5 300.6 1623.3 285.6 1657.9 286.8C1657.9 307.4 1657.9 327.4 1657.9 348.6C1625.3 343.3 1598.5 352.9 1577.8 379.1C1577.8 426.5 1577.8 474 1577.8 521.9C1554.5 521.9 1531.6 521.9 1508.3 521.9C1508.3 445.1 1508.3 368.4 1508.3 291.3Z" fill="#CCCCCC"/>
</svg>
