<svg width="252" height="70" viewBox="0 0 252 70" fill="none"
	xmlns="http://www.w3.org/2000/svg">
	<g clip-path="url(#clip0_113_221)">
		<path d="M63.9711 43.8336H68.8694V24.6171H75.2749V19.9699H57.6074V24.6171H63.9711V43.8336ZM75.2749 43.8336H79.8801V35.7953C79.8801 32.9903 81.3036 31.3156 83.5225 31.3156C84.2761 31.3156 84.9041 31.4412 85.6158 31.6924V27.0034C85.1134 26.8778 84.5691 26.7941 84.0667 26.7941C82.1828 26.7941 80.4663 28.0501 79.8801 29.6829V27.0034H75.2749V43.8336ZM94.4495 44.2104C96.7522 44.2104 98.5105 43.0381 99.306 41.9496V43.8336H103.911V27.0453H99.306V28.9293C98.5524 27.8408 96.794 26.6685 94.4495 26.6685C89.9699 26.6685 86.5368 30.6876 86.5368 35.4604C86.5368 40.1912 89.9699 44.2104 94.4495 44.2104ZM95.4124 40.0238C92.8586 40.0238 91.184 38.0979 91.184 35.4604C91.184 32.8228 92.8586 30.897 95.4124 30.897C97.9663 30.897 99.6409 32.8228 99.6409 35.4604C99.6409 38.0979 97.9663 40.0238 95.4124 40.0238ZM114.838 44.2104C117.141 44.2104 118.899 43.0381 119.695 41.9496V43.8336H124.3V18.6302H119.695V28.9293C118.941 27.8408 117.183 26.6685 114.838 26.6685C110.359 26.6685 106.926 30.6876 106.926 35.4604C106.967 40.1912 110.359 44.2104 114.838 44.2104ZM115.843 40.0238C113.289 40.0238 111.615 38.0979 111.615 35.4604C111.615 32.8228 113.289 30.897 115.843 30.897C118.397 30.897 120.072 32.8228 120.072 35.4604C120.072 38.0979 118.397 40.0238 115.843 40.0238ZM130.705 24.4915C132.338 24.4915 133.678 23.1936 133.678 21.5609C133.678 19.9281 132.338 18.6302 130.705 18.6302C129.115 18.6302 127.775 19.9281 127.775 21.5609C127.817 23.1518 129.115 24.4496 130.705 24.4915ZM128.445 43.8336H133.05V27.2128H128.445V43.8336ZM137.111 43.8336H141.716V35.6278C141.716 32.4041 143.307 30.8551 145.442 30.8551C147.368 30.8551 148.415 32.3204 148.415 34.7487V43.8336H153.02V33.9951C153.02 29.641 150.592 26.6685 146.531 26.6685C144.354 26.6685 142.637 27.5896 141.716 28.9711V27.0453H137.111V43.8336ZM164.743 39.3539C162.44 39.3539 160.472 37.5955 160.472 35.0417C160.472 32.446 162.398 30.7295 164.743 30.7295C167.045 30.7295 169.013 32.446 169.013 35.0417C169.013 37.6374 167.087 39.3539 164.743 39.3539ZM164.198 51.1183C169.348 51.1183 173.241 48.4807 173.241 42.452V26.9616H168.636V28.8455C167.715 27.5477 165.915 26.5848 163.78 26.5848C159.384 26.5848 155.867 30.3527 155.867 35.0836C155.867 39.7726 159.384 43.5405 163.78 43.5405C165.915 43.5405 167.757 42.5776 168.636 41.3216V42.452C168.636 45.1314 166.836 47.0573 164.115 47.0573C162.231 47.0573 160.347 46.4293 158.881 44.964L156.369 48.397C158.295 50.2809 161.268 51.1183 164.198 51.1183ZM182.996 43.8336H187.35L197.231 19.9699H191.872L185.215 36.5489L178.475 19.9699H173.2L182.996 43.8336ZM201.417 24.2821C203.05 24.2821 204.348 22.9843 204.39 21.3515C204.39 19.7187 203.05 18.4209 201.417 18.4209C199.826 18.4209 198.487 19.7187 198.487 21.3515C198.487 22.9843 199.868 24.2821 201.417 24.2821ZM199.156 43.8336H203.762V27.0034H199.156V43.8336ZM215.652 44.2104C219.168 44.2104 221.848 42.7451 223.439 40.4424L220.006 37.8886C219.252 39.0609 217.787 40.0238 215.652 40.0238C213.433 40.0238 211.465 38.7678 211.172 36.507H223.732C223.816 35.7953 223.816 35.3348 223.816 34.9161C223.816 29.4317 219.964 26.6685 215.526 26.6685C210.418 26.6685 206.692 30.4783 206.692 35.4185C206.776 40.7355 210.67 44.2104 215.652 44.2104ZM211.381 33.4089C211.842 31.3575 213.726 30.4783 215.442 30.4783C217.159 30.4783 218.833 31.3994 219.252 33.4089H211.381ZM241.106 43.8336H245.67L251.196 27.0034H246.256L243.116 37.763L239.683 27.0034H236.166L232.775 37.763L229.593 27.0034H224.695L230.263 43.8336H234.826L237.966 34.2881L241.106 43.8336Z" fill="#C7C7C7"/>
		<path d="M18.5885 43.8334H9.29426V29.264H0V19.9697H18.5466V43.8334H18.5885ZM37.177 43.8334H26.5849L36.549 19.9697H47.1411L37.177 43.8334ZM26.5431 19.9697C29.4737 19.9697 31.86 22.3561 31.86 25.2867C31.86 28.2173 29.4737 30.6037 26.5431 30.6037C23.6124 30.6037 21.2261 28.2173 21.2261 25.2867C21.2679 22.3561 23.6124 19.9697 26.5431 19.9697Z" fill="#C7C7C7"/>
	</g>
	<defs>
		<clipPath id="clip0_113_221">
			<rect width="251.196" height="70" fill="white"/>
		</clipPath>
	</defs>
</svg>
