<svg width="103" height="70" viewBox="0 0 103 70" fill="none"
	xmlns="http://www.w3.org/2000/svg">
	<path fill-rule="evenodd" clip-rule="evenodd" d="M83.8611 29.8971C84.2548 30.5721 84.3836 31.34 84.4262 32.2034L84.4821 33.3541V41.4007L84.5392 42.5527C84.6534 44.4339 86.0496 45.8249 87.9574 45.9432L89.1106 46V33.3541L89.1678 32.2034C89.2151 31.3497 89.3427 30.5673 89.7425 29.8874C90.1499 29.1902 90.7347 28.6117 91.4383 28.21C92.1418 27.8083 92.9393 27.5977 93.7507 27.5991C94.5621 27.6006 95.3588 27.8142 96.0609 28.2184C96.763 28.6226 97.3457 29.2032 97.7505 29.9019C98.1442 30.5769 98.2669 31.3594 98.3143 32.2034L98.3714 33.3505V41.4007L98.4285 42.5527C98.5476 44.4436 99.9329 45.8346 101.847 45.9432L103 46V32.2034C103 29.7638 102.025 27.424 100.289 25.6986C98.5535 23.9732 96.1992 23.0034 93.7441 23.0024C92.43 23.001 91.1308 23.2783 89.9332 23.8158C88.7356 24.3532 87.6672 25.1384 86.7994 26.1189C85.9312 25.1388 84.8628 24.3538 83.6653 23.8162C82.4678 23.2786 81.1687 23.0008 79.8547 23.0012C77.9323 23.0012 76.1485 23.5808 74.6708 24.5818C73.7692 23.582 71.752 23.0012 70.5939 23.0012V46L71.752 45.9432C73.689 45.8165 75.0888 44.4629 75.1642 42.5527L75.2261 41.4007V33.3541L75.2832 32.2034C75.3319 31.3352 75.4534 30.5721 75.8483 29.8923C76.256 29.1954 76.8406 28.6171 77.5436 28.2149C78.2466 27.8128 79.0435 27.6009 79.8547 27.6005C80.6665 27.6007 81.464 27.8129 82.1672 28.216C82.8704 28.6191 83.4546 29.1989 83.8611 29.8971V29.8971ZM4.62857 45.9445L5.78663 46H23.1453L23.0882 44.8529C22.9314 42.962 21.5838 41.5806 19.6748 41.4575L18.5167 41.4007H8.10273L21.9872 27.5993L21.9301 26.4534C21.8402 24.5432 20.4355 23.163 18.5167 23.058L17.3587 23.006L0 23.0012L0.0571129 24.1519C0.209009 26.0247 1.57607 27.4351 3.4693 27.5437L4.62857 27.6005H15.0426L1.15805 41.4019L1.21517 42.5527C1.32939 44.4484 2.70618 45.8213 4.62857 45.9432V45.9445ZM66.0504 26.3677C67.1252 27.4354 67.9778 28.7032 68.5596 30.0984C69.1413 31.4937 69.4407 32.9891 69.4407 34.4994C69.4407 36.0096 69.1413 37.5051 68.5596 38.9004C67.9778 40.2956 67.1252 41.5633 66.0504 42.6311C63.8789 44.7872 60.9348 45.9982 57.865 45.9982C54.7953 45.9982 51.8512 44.7872 49.6797 42.6311C45.1605 38.1405 45.1605 30.8583 49.6797 26.3677C50.7535 25.3002 52.0284 24.4534 53.4316 23.8756C54.8348 23.2978 56.3388 23.0002 57.8578 23C59.3791 22.999 60.8858 23.296 62.2916 23.874C63.6974 24.4521 64.9747 25.2999 66.0504 26.3689V26.3677ZM62.7755 29.6242C64.0772 30.9187 64.8084 32.6737 64.8084 34.5036C64.8084 36.3335 64.0772 38.0886 62.7755 39.383C61.4729 40.6765 59.7066 41.4031 57.865 41.4031C56.0235 41.4031 54.2572 40.6765 52.9546 39.383C51.6529 38.0886 50.9216 36.3335 50.9216 34.5036C50.9216 32.6737 51.6529 30.9187 52.9546 29.6242C54.2572 28.3308 56.0235 27.6042 57.865 27.6042C59.7066 27.6042 61.4729 28.3308 62.7755 29.6242V29.6242ZM33.569 23C35.088 23.0004 36.592 23.2981 37.9953 23.8761C39.3985 24.4542 40.6733 25.3012 41.7471 26.3689C46.2675 30.8583 46.2675 38.1417 41.7471 42.6311C39.5756 44.7872 36.6314 45.9982 33.5617 45.9982C30.492 45.9982 27.5478 44.7872 25.3763 42.6311C20.8571 38.1405 20.8571 30.8583 25.3763 26.3677C26.4502 25.3002 27.7251 24.4534 29.1283 23.8756C30.5315 23.2978 32.0355 23.0002 33.5544 23H33.569ZM38.4722 29.6218C39.7743 30.9163 40.5057 32.6716 40.5057 34.5018C40.5057 36.332 39.7743 38.0873 38.4722 39.3818C37.1695 40.6753 35.4033 41.4019 33.5617 41.4019C31.7201 41.4019 29.9539 40.6753 28.6512 39.3818C27.3495 38.0874 26.6183 36.3323 26.6183 34.5024C26.6183 32.6725 27.3495 30.9174 28.6512 29.623C29.9539 28.3295 31.7201 27.603 33.5617 27.603C35.4033 27.603 37.1695 28.3295 38.4722 29.623V29.6218Z" fill="#C7C7C7"/>
</svg>
